solid ascii
  facet normal 0.000000e+000 -1.000000e+000 0.000000e+000
    outer loop
      vertex   -1.800000e+002 1.810000e+002 0.000000e+000
      vertex   -1.300000e+002 1.810000e+002 0.000000e+000
      vertex   -1.800000e+002 1.810000e+002 3.000000e+000
    endloop
  endfacet
  facet normal 0.000000e+000 -5.989229e-002 0.000000e+000
    outer loop
      vertex   -1.800000e+002 1.810000e+002 3.000000e+000
      vertex   -1.300000e+002 1.810000e+002 0.000000e+000
      vertex   -1.300000e+002 1.810000e+002 3.000000e+000
    endloop
  endfacet
  facet normal 0.000000e+000 -9.982048e-001 0.000000e+000
    outer loop
      vertex   -1.300000e+002 1.810000e+002 3.000000e+000
      vertex   -1.300000e+002 1.810000e+002 0.000000e+000
      vertex   -8.000000e+001 1.810000e+002 0.000000e+000
    endloop
  endfacet
  facet normal 0.000000e+000 -5.989229e-002 0.000000e+000
    outer loop
      vertex   -1.300000e+002 1.810000e+002 3.000000e+000
      vertex   -8.000000e+001 1.810000e+002 0.000000e+000
      vertex   -8.000000e+001 1.810000e+002 3.000000e+000
    endloop
  endfacet
  facet normal 1.000000e+000 0.000000e+000 0.000000e+000
    outer loop
      vertex   -1.800000e+002 1.390000e+002 0.000000e+000
      vertex   -1.800000e+002 1.810000e+002 0.000000e+000
      vertex   -1.800000e+002 1.390000e+002 3.000000e+000
    endloop
  endfacet
  facet normal 7.124705e-002 -0.000000e+000 0.000000e+000
    outer loop
      vertex   -1.800000e+002 1.390000e+002 3.000000e+000
      vertex   -1.800000e+002 1.810000e+002 0.000000e+000
      vertex   -1.800000e+002 1.810000e+002 3.000000e+000
    endloop
  endfacet
  facet normal 0.000000e+000 1.000000e+000 -0.000000e+000
    outer loop
      vertex   -8.000000e+001 1.390000e+002 0.000000e+000
      vertex   -1.300000e+002 1.390000e+002 0.000000e+000
      vertex   -8.000000e+001 1.390000e+002 3.000000e+000
    endloop
  endfacet
  facet normal 0.000000e+000 5.989229e-002 0.000000e+000
    outer loop
      vertex   -8.000000e+001 1.390000e+002 3.000000e+000
      vertex   -1.300000e+002 1.390000e+002 0.000000e+000
      vertex   -1.300000e+002 1.390000e+002 3.000000e+000
    endloop
  endfacet
  facet normal 0.000000e+000 9.982048e-001 0.000000e+000
    outer loop
      vertex   -1.300000e+002 1.390000e+002 3.000000e+000
      vertex   -1.300000e+002 1.390000e+002 0.000000e+000
      vertex   -1.800000e+002 1.390000e+002 0.000000e+000
    endloop
  endfacet
  facet normal 0.000000e+000 5.989229e-002 0.000000e+000
    outer loop
      vertex   -1.300000e+002 1.390000e+002 3.000000e+000
      vertex   -1.800000e+002 1.390000e+002 0.000000e+000
      vertex   -1.800000e+002 1.390000e+002 3.000000e+000
    endloop
  endfacet
  facet normal -1.000000e+000 0.000000e+000 0.000000e+000
    outer loop
      vertex   -8.000000e+001 1.810000e+002 0.000000e+000
      vertex   -8.000000e+001 1.390000e+002 0.000000e+000
      vertex   -8.000000e+001 1.810000e+002 3.000000e+000
    endloop
  endfacet
  facet normal -7.124705e-002 -0.000000e+000 0.000000e+000
    outer loop
      vertex   -8.000000e+001 1.810000e+002 3.000000e+000
      vertex   -8.000000e+001 1.390000e+002 0.000000e+000
      vertex   -8.000000e+001 1.390000e+002 3.000000e+000
    endloop
  endfacet
  facet normal 0.000000e+000 -1.000000e+000 0.000000e+000
    outer loop
      vertex   -1.810000e+002 1.920000e+002 3.000000e+000
      vertex   -1.300000e+002 1.920000e+002 3.000000e+000
      vertex   -1.810000e+002 1.920000e+002 1.000000e+001
    endloop
  endfacet
  facet normal 0.000000e+000 -1.359800e-001 0.000000e+000
    outer loop
      vertex   -1.810000e+002 1.920000e+002 1.000000e+001
      vertex   -1.300000e+002 1.920000e+002 3.000000e+000
      vertex   -1.300000e+002 1.920000e+002 1.000000e+001
    endloop
  endfacet
  facet normal 0.000000e+000 -9.907116e-001 0.000000e+000
    outer loop
      vertex   -1.300000e+002 1.920000e+002 1.000000e+001
      vertex   -1.300000e+002 1.920000e+002 3.000000e+000
      vertex   -7.900000e+001 1.920000e+002 3.000000e+000
    endloop
  endfacet
  facet normal 0.000000e+000 -1.359800e-001 0.000000e+000
    outer loop
      vertex   -1.300000e+002 1.920000e+002 1.000000e+001
      vertex   -7.900000e+001 1.920000e+002 3.000000e+000
      vertex   -7.900000e+001 1.920000e+002 1.000000e+001
    endloop
  endfacet
  facet normal -1.000000e+000 0.000000e+000 0.000000e+000
    outer loop
      vertex   -7.900000e+001 1.920000e+002 3.000000e+000
      vertex   -7.900000e+001 1.600000e+002 3.000000e+000
      vertex   -7.900000e+001 1.920000e+002 1.000000e+001
    endloop
  endfacet
  facet normal -2.136969e-001 -0.000000e+000 0.000000e+000
    outer loop
      vertex   -7.900000e+001 1.920000e+002 1.000000e+001
      vertex   -7.900000e+001 1.600000e+002 3.000000e+000
      vertex   -7.900000e+001 1.600000e+002 1.000000e+001
    endloop
  endfacet
  facet normal -9.769000e-001 0.000000e+000 -0.000000e+000
    outer loop
      vertex   -7.900000e+001 1.600000e+002 1.000000e+001
      vertex   -7.900000e+001 1.600000e+002 3.000000e+000
      vertex   -7.900000e+001 1.280000e+002 3.000000e+000
    endloop
  endfacet
  facet normal -2.136969e-001 -0.000000e+000 0.000000e+000
    outer loop
      vertex   -7.900000e+001 1.600000e+002 1.000000e+001
      vertex   -7.900000e+001 1.280000e+002 3.000000e+000
      vertex   -7.900000e+001 1.280000e+002 1.000000e+001
    endloop
  endfacet
  facet normal 0.000000e+000 1.000000e+000 -0.000000e+000
    outer loop
      vertex   -7.900000e+001 1.280000e+002 3.000000e+000
      vertex   -1.300000e+002 1.280000e+002 3.000000e+000
      vertex   -7.900000e+001 1.280000e+002 1.000000e+001
    endloop
  endfacet
  facet normal 0.000000e+000 1.359800e-001 0.000000e+000
    outer loop
      vertex   -7.900000e+001 1.280000e+002 1.000000e+001
      vertex   -1.300000e+002 1.280000e+002 3.000000e+000
      vertex   -1.300000e+002 1.280000e+002 1.000000e+001
    endloop
  endfacet
  facet normal 0.000000e+000 9.907116e-001 0.000000e+000
    outer loop
      vertex   -1.300000e+002 1.280000e+002 1.000000e+001
      vertex   -1.300000e+002 1.280000e+002 3.000000e+000
      vertex   -1.810000e+002 1.280000e+002 3.000000e+000
    endloop
  endfacet
  facet normal 0.000000e+000 1.359800e-001 0.000000e+000
    outer loop
      vertex   -1.300000e+002 1.280000e+002 1.000000e+001
      vertex   -1.810000e+002 1.280000e+002 3.000000e+000
      vertex   -1.810000e+002 1.280000e+002 1.000000e+001
    endloop
  endfacet
  facet normal 1.000000e+000 0.000000e+000 0.000000e+000
    outer loop
      vertex   -1.810000e+002 1.280000e+002 3.000000e+000
      vertex   -1.810000e+002 1.600000e+002 3.000000e+000
      vertex   -1.810000e+002 1.280000e+002 1.000000e+001
    endloop
  endfacet
  facet normal 2.136969e-001 -0.000000e+000 0.000000e+000
    outer loop
      vertex   -1.810000e+002 1.280000e+002 1.000000e+001
      vertex   -1.810000e+002 1.600000e+002 3.000000e+000
      vertex   -1.810000e+002 1.600000e+002 1.000000e+001
    endloop
  endfacet
  facet normal 9.769000e-001 0.000000e+000 0.000000e+000
    outer loop
      vertex   -1.810000e+002 1.600000e+002 1.000000e+001
      vertex   -1.810000e+002 1.600000e+002 3.000000e+000
      vertex   -1.810000e+002 1.920000e+002 3.000000e+000
    endloop
  endfacet
  facet normal 2.136969e-001 -0.000000e+000 0.000000e+000
    outer loop
      vertex   -1.810000e+002 1.600000e+002 1.000000e+001
      vertex   -1.810000e+002 1.920000e+002 3.000000e+000
      vertex   -1.810000e+002 1.920000e+002 1.000000e+001
    endloop
  endfacet
  facet normal -0.000000e+000 0.000000e+000 1.000000e+000
    outer loop
      vertex   -1.300000e+002 1.390000e+002 3.000000e+000
      vertex   -1.300000e+002 1.280000e+002 3.000000e+000
      vertex   -8.000000e+001 1.390000e+002 3.000000e+000
    endloop
  endfacet
  facet normal 0.000000e+000 0.000000e+000 9.920862e-001
    outer loop
      vertex   -8.000000e+001 1.390000e+002 3.000000e+000
      vertex   -1.300000e+002 1.280000e+002 3.000000e+000
      vertex   -7.900000e+001 1.280000e+002 3.000000e+000
    endloop
  endfacet
  facet normal -0.000000e+000 0.000000e+000 1.378031e-001
    outer loop
      vertex   -8.000000e+001 1.390000e+002 3.000000e+000
      vertex   -7.900000e+001 1.280000e+002 3.000000e+000
      vertex   -7.900000e+001 1.600000e+002 3.000000e+000
    endloop
  endfacet
  facet normal 0.000000e+000 0.000000e+000 1.000000e+000
    outer loop
      vertex   -1.300000e+002 1.390000e+002 3.000000e+000
      vertex   -1.800000e+002 1.390000e+002 3.000000e+000
      vertex   -1.300000e+002 1.280000e+002 3.000000e+000
    endloop
  endfacet
  facet normal 0.000000e+000 0.000000e+000 2.148618e-001
    outer loop
      vertex   -1.300000e+002 1.280000e+002 3.000000e+000
      vertex   -1.800000e+002 1.390000e+002 3.000000e+000
      vertex   -1.810000e+002 1.280000e+002 3.000000e+000
    endloop
  endfacet
  facet normal 0.000000e+000 0.000000e+000 9.053575e-002
    outer loop
      vertex   -1.810000e+002 1.280000e+002 3.000000e+000
      vertex   -1.800000e+002 1.390000e+002 3.000000e+000
      vertex   -1.810000e+002 1.600000e+002 3.000000e+000
    endloop
  endfacet
  facet normal -0.000000e+000 0.000000e+000 9.502263e-002
    outer loop
      vertex   -1.810000e+002 1.600000e+002 3.000000e+000
      vertex   -1.800000e+002 1.390000e+002 3.000000e+000
      vertex   -1.800000e+002 1.810000e+002 3.000000e+000
    endloop
  endfacet
  facet normal 0.000000e+000 0.000000e+000 4.756515e-002
    outer loop
      vertex   -1.810000e+002 1.600000e+002 3.000000e+000
      vertex   -1.800000e+002 1.810000e+002 3.000000e+000
      vertex   -1.810000e+002 1.920000e+002 3.000000e+000
    endloop
  endfacet
  facet normal -0.000000e+000 0.000000e+000 9.958932e-001
    outer loop
      vertex   -1.810000e+002 1.920000e+002 3.000000e+000
      vertex   -1.800000e+002 1.810000e+002 3.000000e+000
      vertex   -1.300000e+002 1.920000e+002 3.000000e+000
    endloop
  endfacet
  facet normal 0.000000e+000 0.000000e+000 9.766445e-001
    outer loop
      vertex   -1.300000e+002 1.920000e+002 3.000000e+000
      vertex   -1.800000e+002 1.810000e+002 3.000000e+000
      vertex   -1.300000e+002 1.810000e+002 3.000000e+000
    endloop
  endfacet
  facet normal 0.000000e+000 0.000000e+000 9.766445e-001
    outer loop
      vertex   -1.300000e+002 1.920000e+002 3.000000e+000
      vertex   -1.300000e+002 1.810000e+002 3.000000e+000
      vertex   -8.000000e+001 1.810000e+002 3.000000e+000
    endloop
  endfacet
  facet normal 0.000000e+000 0.000000e+000 4.756515e-002
    outer loop
      vertex   -8.000000e+001 1.390000e+002 3.000000e+000
      vertex   -7.900000e+001 1.600000e+002 3.000000e+000
      vertex   -8.000000e+001 1.810000e+002 3.000000e+000
    endloop
  endfacet
  facet normal -0.000000e+000 0.000000e+000 1.378031e-001
    outer loop
      vertex   -8.000000e+001 1.810000e+002 3.000000e+000
      vertex   -7.900000e+001 1.600000e+002 3.000000e+000
      vertex   -7.900000e+001 1.920000e+002 3.000000e+000
    endloop
  endfacet
  facet normal 0.000000e+000 -0.000000e+000 9.920862e-001
    outer loop
      vertex   -8.000000e+001 1.810000e+002 3.000000e+000
      vertex   -7.900000e+001 1.920000e+002 3.000000e+000
      vertex   -1.300000e+002 1.920000e+002 3.000000e+000
    endloop
  endfacet
  facet normal 0.000000e+000 1.000000e+000 -0.000000e+000
    outer loop
      vertex   -7.600000e+001 1.950000e+002 0.000000e+000
      vertex   -1.300000e+002 1.950000e+002 0.000000e+000
      vertex   -7.600000e+001 1.950000e+002 1.000000e+001
    endloop
  endfacet
  facet normal 0.000000e+000 1.820893e-001 0.000000e+000
    outer loop
      vertex   -7.600000e+001 1.950000e+002 1.000000e+001
      vertex   -1.300000e+002 1.950000e+002 0.000000e+000
      vertex   -1.300000e+002 1.950000e+002 1.000000e+001
    endloop
  endfacet
  facet normal 0.000000e+000 9.832820e-001 0.000000e+000
    outer loop
      vertex   -1.300000e+002 1.950000e+002 1.000000e+001
      vertex   -1.300000e+002 1.950000e+002 0.000000e+000
      vertex   -1.840000e+002 1.950000e+002 0.000000e+000
    endloop
  endfacet
  facet normal 0.000000e+000 1.820893e-001 0.000000e+000
    outer loop
      vertex   -1.300000e+002 1.950000e+002 1.000000e+001
      vertex   -1.840000e+002 1.950000e+002 0.000000e+000
      vertex   -1.840000e+002 1.950000e+002 1.000000e+001
    endloop
  endfacet
  facet normal 1.000000e+000 0.000000e+000 0.000000e+000
    outer loop
      vertex   -7.600000e+001 1.250000e+002 0.000000e+000
      vertex   -7.600000e+001 1.600000e+002 0.000000e+000
      vertex   -7.600000e+001 1.250000e+002 1.000000e+001
    endloop
  endfacet
  facet normal 2.747211e-001 -0.000000e+000 0.000000e+000
    outer loop
      vertex   -7.600000e+001 1.250000e+002 1.000000e+001
      vertex   -7.600000e+001 1.600000e+002 0.000000e+000
      vertex   -7.600000e+001 1.600000e+002 1.000000e+001
    endloop
  endfacet
  facet normal 9.615240e-001 0.000000e+000 0.000000e+000
    outer loop
      vertex   -7.600000e+001 1.600000e+002 1.000000e+001
      vertex   -7.600000e+001 1.600000e+002 0.000000e+000
      vertex   -7.600000e+001 1.950000e+002 0.000000e+000
    endloop
  endfacet
  facet normal 2.747211e-001 -0.000000e+000 0.000000e+000
    outer loop
      vertex   -7.600000e+001 1.600000e+002 1.000000e+001
      vertex   -7.600000e+001 1.950000e+002 0.000000e+000
      vertex   -7.600000e+001 1.950000e+002 1.000000e+001
    endloop
  endfacet
  facet normal 0.000000e+000 -1.000000e+000 0.000000e+000
    outer loop
      vertex   -1.840000e+002 1.250000e+002 0.000000e+000
      vertex   -1.300000e+002 1.250000e+002 0.000000e+000
      vertex   -1.840000e+002 1.250000e+002 1.000000e+001
    endloop
  endfacet
  facet normal 0.000000e+000 -1.820893e-001 0.000000e+000
    outer loop
      vertex   -1.840000e+002 1.250000e+002 1.000000e+001
      vertex   -1.300000e+002 1.250000e+002 0.000000e+000
      vertex   -1.300000e+002 1.250000e+002 1.000000e+001
    endloop
  endfacet
  facet normal 0.000000e+000 -9.832820e-001 0.000000e+000
    outer loop
      vertex   -1.300000e+002 1.250000e+002 1.000000e+001
      vertex   -1.300000e+002 1.250000e+002 0.000000e+000
      vertex   -7.600000e+001 1.250000e+002 0.000000e+000
    endloop
  endfacet
  facet normal 0.000000e+000 -1.820893e-001 0.000000e+000
    outer loop
      vertex   -1.300000e+002 1.250000e+002 1.000000e+001
      vertex   -7.600000e+001 1.250000e+002 0.000000e+000
      vertex   -7.600000e+001 1.250000e+002 1.000000e+001
    endloop
  endfacet
  facet normal -1.000000e+000 0.000000e+000 0.000000e+000
    outer loop
      vertex   -1.840000e+002 1.950000e+002 0.000000e+000
      vertex   -1.840000e+002 1.600000e+002 0.000000e+000
      vertex   -1.840000e+002 1.950000e+002 1.000000e+001
    endloop
  endfacet
  facet normal -2.747211e-001 -0.000000e+000 0.000000e+000
    outer loop
      vertex   -1.840000e+002 1.950000e+002 1.000000e+001
      vertex   -1.840000e+002 1.600000e+002 0.000000e+000
      vertex   -1.840000e+002 1.600000e+002 1.000000e+001
    endloop
  endfacet
  facet normal -9.615240e-001 0.000000e+000 -0.000000e+000
    outer loop
      vertex   -1.840000e+002 1.600000e+002 1.000000e+001
      vertex   -1.840000e+002 1.600000e+002 0.000000e+000
      vertex   -1.840000e+002 1.250000e+002 0.000000e+000
    endloop
  endfacet
  facet normal -2.747211e-001 -0.000000e+000 0.000000e+000
    outer loop
      vertex   -1.840000e+002 1.600000e+002 1.000000e+001
      vertex   -1.840000e+002 1.250000e+002 0.000000e+000
      vertex   -1.840000e+002 1.250000e+002 1.000000e+001
    endloop
  endfacet
  facet normal 0.000000e+000 -0.000000e+000 1.000000e+000
    outer loop
      vertex   -1.300000e+002 1.920000e+002 1.000000e+001
      vertex   -1.300000e+002 1.950000e+002 1.000000e+001
      vertex   -1.810000e+002 1.920000e+002 1.000000e+001
    endloop
  endfacet
  facet normal 0.000000e+000 -0.000000e+000 7.474093e-001
    outer loop
      vertex   -1.810000e+002 1.920000e+002 1.000000e+001
      vertex   -1.300000e+002 1.950000e+002 1.000000e+001
      vertex   -1.840000e+002 1.950000e+002 1.000000e+001
    endloop
  endfacet
  facet normal 0.000000e+000 0.000000e+000 7.700216e-001
    outer loop
      vertex   -1.810000e+002 1.920000e+002 1.000000e+001
      vertex   -1.840000e+002 1.950000e+002 1.000000e+001
      vertex   -1.840000e+002 1.600000e+002 1.000000e+001
    endloop
  endfacet
  facet normal 0.000000e+000 0.000000e+000 1.000000e+000
    outer loop
      vertex   -1.300000e+002 1.920000e+002 1.000000e+001
      vertex   -7.900000e+001 1.920000e+002 1.000000e+001
      vertex   -1.300000e+002 1.950000e+002 1.000000e+001
    endloop
  endfacet
  facet normal -0.000000e+000 0.000000e+000 5.872202e-002
    outer loop
      vertex   -1.300000e+002 1.950000e+002 1.000000e+001
      vertex   -7.900000e+001 1.920000e+002 1.000000e+001
      vertex   -7.600000e+001 1.950000e+002 1.000000e+001
    endloop
  endfacet
  facet normal 0.000000e+000 0.000000e+000 7.071068e-001
    outer loop
      vertex   -7.600000e+001 1.950000e+002 1.000000e+001
      vertex   -7.900000e+001 1.920000e+002 1.000000e+001
      vertex   -7.600000e+001 1.600000e+002 1.000000e+001
    endloop
  endfacet
  facet normal 0.000000e+000 0.000000e+000 9.956342e-001
    outer loop
      vertex   -7.600000e+001 1.600000e+002 1.000000e+001
      vertex   -7.900000e+001 1.920000e+002 1.000000e+001
      vertex   -7.900000e+001 1.600000e+002 1.000000e+001
    endloop
  endfacet
  facet normal 0.000000e+000 0.000000e+000 9.956342e-001
    outer loop
      vertex   -7.600000e+001 1.600000e+002 1.000000e+001
      vertex   -7.900000e+001 1.600000e+002 1.000000e+001
      vertex   -7.900000e+001 1.280000e+002 1.000000e+001
    endloop
  endfacet
  facet normal -0.000000e+000 0.000000e+000 1.000000e+000
    outer loop
      vertex   -1.300000e+002 1.280000e+002 1.000000e+001
      vertex   -1.300000e+002 1.250000e+002 1.000000e+001
      vertex   -7.900000e+001 1.280000e+002 1.000000e+001
    endloop
  endfacet
  facet normal 0.000000e+000 0.000000e+000 7.474093e-001
    outer loop
      vertex   -7.900000e+001 1.280000e+002 1.000000e+001
      vertex   -1.300000e+002 1.250000e+002 1.000000e+001
      vertex   -7.600000e+001 1.250000e+002 1.000000e+001
    endloop
  endfacet
  facet normal -0.000000e+000 0.000000e+000 7.700216e-001
    outer loop
      vertex   -7.900000e+001 1.280000e+002 1.000000e+001
      vertex   -7.600000e+001 1.250000e+002 1.000000e+001
      vertex   -7.600000e+001 1.600000e+002 1.000000e+001
    endloop
  endfacet
  facet normal 0.000000e+000 0.000000e+000 1.000000e+000
    outer loop
      vertex   -1.300000e+002 1.280000e+002 1.000000e+001
      vertex   -1.810000e+002 1.280000e+002 1.000000e+001
      vertex   -1.300000e+002 1.250000e+002 1.000000e+001
    endloop
  endfacet
  facet normal 0.000000e+000 0.000000e+000 5.872202e-002
    outer loop
      vertex   -1.300000e+002 1.250000e+002 1.000000e+001
      vertex   -1.810000e+002 1.280000e+002 1.000000e+001
      vertex   -1.840000e+002 1.250000e+002 1.000000e+001
    endloop
  endfacet
  facet normal 0.000000e+000 0.000000e+000 7.071068e-001
    outer loop
      vertex   -1.840000e+002 1.250000e+002 1.000000e+001
      vertex   -1.810000e+002 1.280000e+002 1.000000e+001
      vertex   -1.840000e+002 1.600000e+002 1.000000e+001
    endloop
  endfacet
  facet normal -0.000000e+000 0.000000e+000 9.956342e-001
    outer loop
      vertex   -1.840000e+002 1.600000e+002 1.000000e+001
      vertex   -1.810000e+002 1.280000e+002 1.000000e+001
      vertex   -1.810000e+002 1.600000e+002 1.000000e+001
    endloop
  endfacet
  facet normal 0.000000e+000 0.000000e+000 9.956342e-001
    outer loop
      vertex   -1.840000e+002 1.600000e+002 1.000000e+001
      vertex   -1.810000e+002 1.600000e+002 1.000000e+001
      vertex   -1.810000e+002 1.920000e+002 1.000000e+001
    endloop
  endfacet
  facet normal -0.000000e+000 -0.000000e+000 -1.000000e+000
    outer loop
      vertex   -1.300000e+002 1.390000e+002 0.000000e+000
      vertex   -1.300000e+002 1.250000e+002 0.000000e+000
      vertex   -1.800000e+002 1.390000e+002 0.000000e+000
    endloop
  endfacet
  facet normal 0.000000e+000 -0.000000e+000 -9.999860e-001
    outer loop
      vertex   -1.800000e+002 1.390000e+002 0.000000e+000
      vertex   -1.300000e+002 1.250000e+002 0.000000e+000
      vertex   -1.840000e+002 1.250000e+002 0.000000e+000
    endloop
  endfacet
  facet normal -0.000000e+000 0.000000e+000 -4.497819e-001
    outer loop
      vertex   -1.800000e+002 1.390000e+002 0.000000e+000
      vertex   -1.840000e+002 1.250000e+002 0.000000e+000
      vertex   -1.840000e+002 1.600000e+002 0.000000e+000
    endloop
  endfacet
  facet normal 0.000000e+000 0.000000e+000 -1.000000e+000
    outer loop
      vertex   -1.300000e+002 1.390000e+002 0.000000e+000
      vertex   -8.000000e+001 1.390000e+002 0.000000e+000
      vertex   -1.300000e+002 1.250000e+002 0.000000e+000
    endloop
  endfacet
  facet normal 0.000000e+000 0.000000e+000 -2.696299e-001
    outer loop
      vertex   -1.300000e+002 1.250000e+002 0.000000e+000
      vertex   -8.000000e+001 1.390000e+002 0.000000e+000
      vertex   -7.600000e+001 1.250000e+002 0.000000e+000
    endloop
  endfacet
  facet normal 0.000000e+000 0.000000e+000 -2.747211e-001
    outer loop
      vertex   -7.600000e+001 1.250000e+002 0.000000e+000
      vertex   -8.000000e+001 1.390000e+002 0.000000e+000
      vertex   -7.600000e+001 1.600000e+002 0.000000e+000
    endloop
  endfacet
  facet normal -0.000000e+000 0.000000e+000 -3.676149e-001
    outer loop
      vertex   -7.600000e+001 1.600000e+002 0.000000e+000
      vertex   -8.000000e+001 1.390000e+002 0.000000e+000
      vertex   -8.000000e+001 1.810000e+002 0.000000e+000
    endloop
  endfacet
  facet normal 0.000000e+000 0.000000e+000 -1.871121e-001
    outer loop
      vertex   -7.600000e+001 1.600000e+002 0.000000e+000
      vertex   -8.000000e+001 1.810000e+002 0.000000e+000
      vertex   -7.600000e+001 1.950000e+002 0.000000e+000
    endloop
  endfacet
  facet normal -0.000000e+000 0.000000e+000 -9.615240e-001
    outer loop
      vertex   -7.600000e+001 1.950000e+002 0.000000e+000
      vertex   -8.000000e+001 1.810000e+002 0.000000e+000
      vertex   -1.300000e+002 1.950000e+002 0.000000e+000
    endloop
  endfacet
  facet normal 0.000000e+000 0.000000e+000 -9.629640e-001
    outer loop
      vertex   -1.300000e+002 1.950000e+002 0.000000e+000
      vertex   -8.000000e+001 1.810000e+002 0.000000e+000
      vertex   -1.300000e+002 1.810000e+002 0.000000e+000
    endloop
  endfacet
  facet normal 0.000000e+000 -0.000000e+000 -9.629640e-001
    outer loop
      vertex   -1.300000e+002 1.950000e+002 0.000000e+000
      vertex   -1.300000e+002 1.810000e+002 0.000000e+000
      vertex   -1.800000e+002 1.810000e+002 0.000000e+000
    endloop
  endfacet
  facet normal 0.000000e+000 0.000000e+000 -1.871121e-001
    outer loop
      vertex   -1.800000e+002 1.390000e+002 0.000000e+000
      vertex   -1.840000e+002 1.600000e+002 0.000000e+000
      vertex   -1.800000e+002 1.810000e+002 0.000000e+000
    endloop
  endfacet
  facet normal -0.000000e+000 0.000000e+000 -4.497819e-001
    outer loop
      vertex   -1.800000e+002 1.810000e+002 0.000000e+000
      vertex   -1.840000e+002 1.600000e+002 0.000000e+000
      vertex   -1.840000e+002 1.950000e+002 0.000000e+000
    endloop
  endfacet
  facet normal 0.000000e+000 0.000000e+000 -9.999860e-001
    outer loop
      vertex   -1.800000e+002 1.810000e+002 0.000000e+000
      vertex   -1.840000e+002 1.950000e+002 0.000000e+000
      vertex   -1.300000e+002 1.950000e+002 0.000000e+000
    endloop
  endfacet
endsolid
